# xmcd
#
# Track frame offsets:
#	150
#	11977
#	32917
#	61930
#
# Disc length: 2687 seconds
#
# Revision: 0
# Processed by: cddbd v1.4PL0 Copyright (c) Steve Scherf et al.
# Submitted via: dBpowerAMP V4.0
#
DISCID=2f0a7d04
DTITLE=Sherrié Austin - Little Bird [CD Single]
DYEAR=1999
DGENRE=Country
TTITLE0=Little Bird
TTITLE1=Never Been Kissed [Extended Mix]
TTITLE2=Little Bird [Extended Mix]
TTITLE3=DATA
EXTD=
EXTT0=
EXTT1=
EXTT2=
EXTT3=
PLAYORDER=
